<svg id="raio" xmlns="http://www.w3.org/2000/svg" xmlns:xlink="http://www.w3.org/1999/xlink" width="49.573" height="49.449" viewBox="0 0 49.573 49.449">
  <defs>
    <clipPath id="clip-path">
      <rect id="Retângulo_945" data-name="Retângulo 945" width="49.573" height="49.449" fill="#e7e7e7"/>
    </clipPath>
  </defs>
  <g id="Grupo_1782" data-name="Grupo 1782" clip-path="url(#clip-path)">
    <path id="Caminho_84458" data-name="Caminho 84458" d="M361.346,198.419a1.094,1.094,0,0,0-1.1-.6c-.671.006-1.354.005-2.015,0-.467,0-.933,0-1.4,0H356.6c-.429,0-.873,0-1.309.036a.746.746,0,0,0-.713.807.772.772,0,0,0,.7.811,2.476,2.476,0,0,0,.4.031h1.587c.978,0,1.988,0,2.982,0h.016a1.086,1.086,0,0,0,1.079-.6l.012-.025v-.441Z" transform="translate(-311.786 -173.944)" fill="#e7e7e7"/>
    <path id="Caminho_84459" data-name="Caminho 84459" d="M199.486,357.339q0-.7,0-1.4v-.237c0-.428,0-.87-.036-1.3a.744.744,0,0,0-.8-.712.77.77,0,0,0-.809.7,2.493,2.493,0,0,0-.031.4q0,.791,0,1.583c0,.975,0,1.983,0,2.975a1.089,1.089,0,0,0,.6,1.092l.025.012h.44l.025-.012a1.086,1.086,0,0,0,.6-1.093c-.006-.67-.005-1.352,0-2.011" transform="translate(-173.929 -311.006)" fill="#e7e7e7"/>
    <path id="Caminho_84460" data-name="Caminho 84460" d="M198.093,6.548a.772.772,0,0,0,.556.217h.008c.513,0,.824-.385.832-1.019.007-.554.006-1.116,0-1.66q0-.348,0-.7,0-.363,0-.726c0-.55,0-1.118-.005-1.678-.01-.594-.322-.972-.815-.986a.772.772,0,0,0-.573.212,1.069,1.069,0,0,0-.287.786c-.01,1.522-.01,3.122,0,4.757a1.093,1.093,0,0,0,.28.793" transform="translate(-173.934 -0.001)" fill="#e7e7e7"/>
    <path id="Caminho_84461" data-name="Caminho 84461" d="M5.782,199.521c.594-.01.97-.323.982-.817a.774.774,0,0,0-.213-.573,1.071,1.071,0,0,0-.785-.284c-1.54-.009-3.141-.01-4.756,0a1.091,1.091,0,0,0-.793.281.773.773,0,0,0-.216.565c.006.511.388.821,1.023.83.556.007,1.122.006,1.668,0l.687,0,.733,0,.694,0c.325,0,.652,0,.977-.007" transform="translate(0 -173.964)" fill="#e7e7e7"/>
    <path id="Caminho_84462" data-name="Caminho 84462" d="M58.407,59.574l.015.015q1.577,1.581,3.16,3.158l.018.018a1.98,1.98,0,0,0,.367.311.816.816,0,0,0,.421.12.756.756,0,0,0,.37-.1.982.982,0,0,0,.459-.875v-.038l-.022-.032c-.019-.027-.041-.063-.066-.105a2.43,2.43,0,0,0-.323-.441c-.862-.879-1.748-1.762-2.606-2.616l-.345-.344-.1-.1a3.772,3.772,0,0,0-.514-.461.762.762,0,0,0-1.028.1.777.777,0,0,0-.119,1.023,2.066,2.066,0,0,0,.314.368" transform="translate(-50.96 -50.938)" fill="#e7e7e7"/>
    <path id="Caminho_84463" data-name="Caminho 84463" d="M309.8,62.9h.035l.025-.012c.015-.007.038-.015.063-.024a.91.91,0,0,0,.342-.187c1.094-1.078,2.382-2.354,3.645-3.643a.8.8,0,0,0,.243-.577.846.846,0,0,0-1.422-.595,2.142,2.142,0,0,0-.18.169l-.462.463q-1.389,1.389-2.775,2.78l-.01.01a1.919,1.919,0,0,0-.318.381.791.791,0,0,0-.007.8.925.925,0,0,0,.822.435" transform="translate(-271.594 -50.679)" fill="#e7e7e7"/>
    <path id="Caminho_84464" data-name="Caminho 84464" d="M61.988,308.171a1.583,1.583,0,0,0-.257.222l-.014.014q-1.649,1.646-3.294,3.295a1.6,1.6,0,0,0-.287.366.769.769,0,0,0,.012.766.975.975,0,0,0,.858.441h.038l.032-.022c.028-.019.066-.042.108-.068a2.4,2.4,0,0,0,.444-.323c.769-.754,1.542-1.53,2.289-2.28l.5-.5c.057-.058.116-.114.174-.171a5.539,5.539,0,0,0,.531-.569.767.767,0,0,0-.067-1.072.786.786,0,0,0-1.066-.1" transform="translate(-51.035 -270.837)" fill="#e7e7e7"/>
    <path id="Caminho_84465" data-name="Caminho 84465" d="M313.265,312.275c-.009-.017-.019-.042-.031-.071a1.084,1.084,0,0,0-.211-.358c-1.327-1.346-2.494-2.513-3.567-3.567a.856.856,0,0,0-.619-.267.823.823,0,0,0-.58.259.845.845,0,0,0,.03,1.2c.04.047.083.088.125.129l.761.76q1.24,1.242,2.482,2.481a1.817,1.817,0,0,0,.438.35.8.8,0,0,0,.364.089.768.768,0,0,0,.4-.115.942.942,0,0,0,.417-.83V312.3Z" transform="translate(-270.85 -270.84)" fill="#e7e7e7"/>
    <path id="Caminho_84466" data-name="Caminho 84466" d="M132.636,37.559c-.319-.738-.62-1.435-.971-2.109-.123-.236-.684-.278-.941-.211a.647.647,0,0,0-.418.33.755.755,0,0,0-.027.612,26.832,26.832,0,0,0,1.085,2.567.937.937,0,0,0,.761.35.653.653,0,0,0,.134-.013,1.01,1.01,0,0,0,.5-.4c.061-.073.125-.148.19-.212l.06-.058-.034-.076c-.117-.266-.23-.525-.34-.78" transform="translate(-114.511 -30.961)" fill="#e7e7e7"/>
    <path id="Caminho_84467" data-name="Caminho 84467" d="M35.043,131.823c.685.3,1.593.7,2.535,1.034a.714.714,0,0,0,.664-.094.973.973,0,0,0,.376-.816v-.036l-.021-.03a1,1,0,0,1-.052-.1.769.769,0,0,0-.316-.384c-.937-.429-1.792-.785-2.614-1.087a.693.693,0,0,0-.545.015.825.825,0,0,0-.412.486.756.756,0,0,0,.386,1.009" transform="translate(-30.422 -114.544)" fill="#e7e7e7"/>
    <path id="Caminho_84468" data-name="Caminho 84468" d="M343.153,132.109a1.023,1.023,0,0,0,.412.491c.074.059.15.12.215.184l.059.057.075-.033c.264-.118.523-.231.777-.342.74-.324,1.438-.629,2.114-.984.236-.124.257-.682.189-.945a.627.627,0,0,0-.321-.405.719.719,0,0,0-.585-.03,27.873,27.873,0,0,0-2.617,1.1.966.966,0,0,0-.317.905" transform="translate(-301.726 -114.358)" fill="#e7e7e7"/>
    <path id="Caminho_84469" data-name="Caminho 84469" d="M345.58,258.983a1.04,1.04,0,0,0-.391-.411c-.824-.387-1.673-.723-2.395-1a.777.777,0,0,0-1.056.461.75.75,0,0,0,.4,1.042c.931.426,1.707.748,2.442,1.013a.866.866,0,0,0,.294.054.731.731,0,0,0,.422-.132,1.008,1.008,0,0,0,.385-.844v-.044l-.028-.034a1.234,1.234,0,0,1-.072-.106" transform="translate(-300.427 -226.429)" fill="#e7e7e7"/>
    <path id="Caminho_84470" data-name="Caminho 84470" d="M132.862,342.167a1.545,1.545,0,0,0-.515-.4.741.741,0,0,0-.958.494c-.3.677-.6,1.4-.921,2.218a1.018,1.018,0,0,0-.023.795.77.77,0,0,0,.448.41.9.9,0,0,0,.315.061.918.918,0,0,0,.818-.65c.284-.661.559-1.339.825-1.995l.036-.09a2.236,2.236,0,0,0,.09-.3c.009-.036.018-.072.028-.108l.132-.18-.083-.073c-.065-.057-.127-.12-.193-.188" transform="translate(-114.641 -300.48)" fill="#e7e7e7"/>
    <path id="Caminho_84471" data-name="Caminho 84471" d="M259.8,344c-.307-.708-.6-1.377-.926-2.031a.564.564,0,0,0-.342-.29.835.835,0,0,0-.638.083.722.722,0,0,0-.423.9c.322.862.684,1.743,1.076,2.619a.688.688,0,0,0,.394.372.677.677,0,0,0,.23.04.721.721,0,0,0,.318-.076,1.587,1.587,0,0,0,.465-.41c.062-.071.127-.144.2-.213l.059-.058-.034-.076c-.13-.293-.254-.579-.375-.858" transform="translate(-226.363 -300.415)" fill="#e7e7e7"/>
    <path id="Caminho_84472" data-name="Caminho 84472" d="M38.526,257.105a1,1,0,0,0-.4-.5c-.071-.058-.137-.113-.193-.17l-.084-.085-.152.148h-.007a.543.543,0,0,0-.121.03q-.348.142-.7.282c-.616.248-1.254.5-1.871.783a.741.741,0,0,0-.349,1.021.755.755,0,0,0,.7.518.79.79,0,0,0,.276-.051A25.879,25.879,0,0,0,38.193,258a.962.962,0,0,0,.333-.9" transform="translate(-30.404 -225.418)" fill="#e7e7e7"/>
    <path id="Caminho_84473" data-name="Caminho 84473" d="M259.22,38.126h.033l.029-.016.076-.042a2.969,2.969,0,0,0,.341-.206.662.662,0,0,0,.2-.289l.183-.434c.252-.6.514-1.218.754-1.834a.8.8,0,0,0-.358-1.1.871.871,0,0,0-.682-.079.682.682,0,0,0-.4.374c-.427.925-.776,1.786-1.068,2.63a.665.665,0,0,0,.09.614.985.985,0,0,0,.805.385" transform="translate(-227.115 -29.971)" fill="#e7e7e7"/>
    <path id="Caminho_84474" data-name="Caminho 84474" d="M164.088,126.092H162.1a.121.121,0,0,1-.108-.174c.048-.1.09-.185.131-.271.074-.155.133-.277.2-.4q.5-.935,1.01-1.868c.63-1.163,1.281-2.366,1.916-3.557a1.191,1.191,0,0,0-1.146-1.938c-.616,0-1.243,0-1.85,0h-.05c-.937,0-1.906.007-2.859-.013a1.484,1.484,0,0,0-1.534.985c-1.046,2.265-2.117,4.548-3.153,6.755l-.1.21q-.74,1.577-1.478,3.154a1.252,1.252,0,0,0,1.276,2.02c.691.005,1.38,0,2.046,0h.976a.121.121,0,0,1,.113.162c-.032.089-.061.17-.089.248-.055.154-.1.286-.152.416q-.315.813-.633,1.626l-.052.134c-.468,1.2-.952,2.443-1.426,3.685a1.2,1.2,0,0,0,.422,1.6,1.149,1.149,0,0,0,.586.171,1.354,1.354,0,0,0,1.052-.617c1.815-2.374,3.683-4.83,5.332-7l.336-.441,2.2-2.89a1.221,1.221,0,0,0,.214-1.32,1.171,1.171,0,0,0-1.194-.684m-5.648,7.179c.333-.766.678-1.559.835-1.966a1.271,1.271,0,0,0-1.353-2l-1.074,0h-1.811a.121.121,0,0,1-.114-.16c.026-.076.048-.144.07-.213a2.784,2.784,0,0,1,.122-.331q.6-1.287,1.2-2.574l.029-.061c.9-1.912,1.822-3.89,2.733-5.861a.955.955,0,0,1,.886-.55c.734.019,1.474.016,2.258.012h.014c.33,0,.669,0,1.021,0a.121.121,0,0,1,.106.178l-.282.53c-.168.315-.317.6-.468.877q-.382.709-.766,1.417l-.086.159c-.541,1-1.1,2.034-1.646,3.055a1.465,1.465,0,0,0-.139,1.421,1.5,1.5,0,0,0,1.342.577c.331.005.664,0,1.017,0h.6a.121.121,0,0,1,.1.194c-.8,1.048-1.764,2.46-2.7,3.83s-1.814,2.648-2.539,3.6h0a.123.123,0,0,1-.155.032.121.121,0,0,1-.054-.149c.162-.419.512-1.224.851-2Z" transform="translate(-134.39 -103.646)" fill="#e7e7e7"/>
    <path id="Caminho_84475" data-name="Caminho 84475" d="M102.546,87.919a.839.839,0,0,0-.971.707,3.546,3.546,0,0,0-.075.391,14.52,14.52,0,0,1-14.508,12.7h-.033a13.6,13.6,0,0,1-8.773-3.036c-4.745-3.837-6.542-8.762-5.342-14.638a13.941,13.941,0,0,1,8.224-10.19,15.131,15.131,0,0,1,4.3-1.2A.84.84,0,1,0,85.116,71a15.481,15.481,0,0,0-8.129,3.38,15.967,15.967,0,0,0-6.155,13.591,15.246,15.246,0,0,0,2.781,8.3,15.886,15.886,0,0,0,12.865,7.135h0l.317,0A16.336,16.336,0,0,0,103.224,88.92a.857.857,0,0,0-.678-1" transform="translate(-62.27 -62.424)" fill="#e7e7e7"/>
    <path id="Caminho_84476" data-name="Caminho 84476" d="M227.6,85l0-.017c-.023-.122-.048-.261-.074-.412-.063-.361-.142-.809-.248-1.243a16.215,16.215,0,0,0-13.862-12.357c-.6-.073-1,.173-1.095.657s.224.877.8.992c.2.041.411.073.612.1.281.043.572.088.849.156a14.485,14.485,0,0,1,10.6,9.391,13.53,13.53,0,0,1,.544,2.109c.069.343.141.7.224,1.044a.88.88,0,0,0,.825.752.8.8,0,0,0,.121-.009c.341-.051.738-.295.7-1.167" transform="translate(-186.683 -62.392)" fill="#e7e7e7"/>
  </g>
</svg>
