<svg id="emagrecimento" xmlns="http://www.w3.org/2000/svg" xmlns:xlink="http://www.w3.org/1999/xlink" width="40.401" height="40.411" viewBox="0 0 40.401 40.411">
  <defs>
    <clipPath id="clip-path">
      <rect id="Retângulo_974" data-name="Retângulo 974" width="40.401" height="40.411" fill="#fff"/>
    </clipPath>
  </defs>
  <g id="Grupo_1829" data-name="Grupo 1829" clip-path="url(#clip-path)">
    <path id="Caminho_84649" data-name="Caminho 84649" d="M42.9,40.411a1.183,1.183,0,0,1-.529-.792C41.655,36.443,40.768,33.3,40.2,30.1a21.038,21.038,0,0,1,2.46-14.339,23.619,23.619,0,0,0,1.882-3.5A11.27,11.27,0,0,0,43.47,1.784a5.485,5.485,0,0,1-.346-.573A.822.822,0,0,1,43.4.133a.811.811,0,0,1,1.119.224,13.049,13.049,0,0,1,2.346,5.621,13.68,13.68,0,0,1-1.4,8.291c-.047.094-.092.189-.144.28-.133.233-.033.309.2.3.079,0,.158,0,.237,0H65.935c.079,0,.158,0,.237,0,.261.007.289-.106.176-.316a13.432,13.432,0,0,1-.891-2.016,12.949,12.949,0,0,1,.386-9.935,15.859,15.859,0,0,1,1.3-2.207A.812.812,0,0,1,68.25.12a.821.821,0,0,1,.292,1.1c-.137.268-.31.518-.47.774a11.292,11.292,0,0,0-.74,10.751A23.286,23.286,0,0,0,68.925,15.6,21.173,21.173,0,0,1,71.72,24.43a20.584,20.584,0,0,1-.082,4.635A.819.819,0,1,1,70.01,28.9c.032-.642.119-1.281.143-1.923a19.928,19.928,0,0,0-.223-3.533c-.063-.442-.29-.166-.43-.078q-2.394,1.486-4.779,2.988c-1.926,1.207-3.847,2.422-5.783,3.612a.93.93,0,0,0-.515.91c.021,2.772.01,5.545.011,8.318a1.185,1.185,0,0,1-.547,1.217h-.631a1.043,1.043,0,0,1-.5-.993c.011-2.742.006-5.485.005-8.228,0-.53,0-.53-.546-.531h-.748c-.546,0-.547,0-.547.53,0,2.743-.006,5.485.005,8.228a1.045,1.045,0,0,1-.5.993h-.631c-.5-.263-.547-.729-.547-1.218,0-2.773-.011-5.546.011-8.32a.927.927,0,0,0-.515-.91c-1.3-.79-2.589-1.61-3.881-2.419q-3.341-2.093-6.682-4.186c-.362-.227-.379-.215-.443.207a18.57,18.57,0,0,0,.221,6.889c.648,2.909,1.351,5.807,2.029,8.709.155.661.076.88-.445,1.247ZM55.86,16.537c-3.731,0-7.462.006-11.192-.009a.771.771,0,0,0-.8.459,22.474,22.474,0,0,0-1.624,4.052.405.405,0,0,0,.216.54q5.8,3.619,11.587,7.258a1.176,1.176,0,0,0,.666.193c.749-.01,1.5-.011,2.246,0a1.233,1.233,0,0,0,.7-.21Q63.429,25.2,69.21,21.585a.405.405,0,0,0,.225-.537,22.058,22.058,0,0,0-1.643-4.086.721.721,0,0,0-.74-.433c-3.731.014-7.461.008-11.192.008" transform="translate(-35.648 0.001)" fill="#fff"/>
    <path id="Caminho_84650" data-name="Caminho 84650" d="M0,48.7a1.2,1.2,0,0,1,1.092-.493c1.272.017,2.544.006,3.837.006-.011-.194-.16-.258-.243-.362a.83.83,0,0,1,.028-1.142.8.8,0,0,1,1.137-.016q.927.882,1.81,1.81a.756.756,0,0,1,0,1.1q-.881.927-1.809,1.81A.8.8,0,0,1,4.716,51.4a.823.823,0,0,1-.029-1.14c.081-.1.17-.192.262-.3-.146-.114-.3-.064-.431-.065-1.129,0-2.258-.015-3.387,0A1.235,1.235,0,0,1,0,49.412Z" transform="translate(0 -41.57)" fill="#fff"/>
    <path id="Caminho_84651" data-name="Caminho 84651" d="M304,338.6a.911.911,0,0,1-.483-1.094c.271-1.161.541-2.323.828-3.48a.839.839,0,0,1,.932-.715.816.816,0,0,1,.7.974c-.275,1.254-.579,2.5-.876,3.751a1.015,1.015,0,0,1-.467.563Z" transform="translate(-271.509 -298.185)" fill="#fff"/>
    <path id="Caminho_84652" data-name="Caminho 84652" d="M311.133,48.243h2.773c.486,0,.973-.015,1.457.01a.808.808,0,0,1,.809.8.824.824,0,0,1-.791.863,3.472,3.472,0,0,1-.393.01c-1.129,0-2.258,0-3.387,0-.125,0-.259-.042-.381.047.036.156.177.224.262.335a.831.831,0,0,1-.044,1.113.786.786,0,0,1-1.105.048q-.961-.9-1.867-1.864a.756.756,0,0,1,.039-1.1q.859-.9,1.754-1.755a.814.814,0,0,1,1.168-.022.829.829,0,0,1,.011,1.17c-.075.089-.155.174-.3.341" transform="translate(-275.772 -41.598)" fill="#fff"/>
    <path id="Caminho_84653" data-name="Caminho 84653" d="M321.039,301.32a.817.817,0,0,1-.806.844.83.83,0,0,1-.82-.8.849.849,0,0,1,.834-.868.819.819,0,0,1,.792.819" transform="translate(-285.762 -268.842)" fill="#fff"/>
    <path id="Caminho_84654" data-name="Caminho 84654" d="M184.7,94.416a.813.813,0,1,1-.8.838.793.793,0,0,1,.8-.838" transform="translate(-164.532 -84.469)" fill="#fff"/>
  </g>
</svg>
